<svg xmlns="http://www.w3.org/2000/svg" version="1.1" xmlns:xlink="http://www.w3.org/1999/xlink" xmlns:svgjs="http://svgjs.dev/svgjs" width="2000" height="277" viewBox="0 0 2000 277"><g transform="matrix(1,0,0,1,-1.2121212121210192,-0.7374739727434587)"><svg viewBox="0 0 396 55" data-background-color="#ffffff" preserveAspectRatio="xMidYMid meet" height="277" width="2000" xmlns="http://www.w3.org/2000/svg" xmlns:xlink="http://www.w3.org/1999/xlink"><g id="tight-bounds" transform="matrix(1,0,0,1,0.23999999999995225,0.146429850183722)"><svg viewBox="0 0 395.52 54.707140299632535" height="54.707140299632535" width="395.52"><g><svg viewBox="0 0 395.52 54.707140299632535" height="54.707140299632535" width="395.52"><g><svg viewBox="0 0 395.52 54.707140299632535" height="54.707140299632535" width="395.52"><g id="textblocktransform"><svg viewBox="0 0 395.52 54.707140299632535" height="54.707140299632535" width="395.52" id="textblock"><g><svg viewBox="0 0 395.52 54.707140299632535" height="54.707140299632535" width="395.52"><g transform="matrix(1,0,0,1,0,0)"><svg width="395.52" viewBox="2.4989795918367346 -35.45 259.8902040801632 35.95" height="54.707140299632535" data-palette-color="#0080ff"><path d="M37.5 0.05L37.5 0.05Q33.05 0.05 33.05-0.95L33.05-0.95 32-21 25.9-0.7Q25.7-0.1 22.5-0.1 19.3-0.1 19.2-0.65L19.2-0.65 12.9-21.2 12.2-1.25Q12.15-0.5 10.3-0.23 8.45 0.05 7.23 0.05 6 0.05 4.85-0.1L4.85-0.1Q2.45-0.45 2.5-1.35L2.5-1.35 3.65-33.85Q3.65-35.05 9.75-35.05L9.75-35.05Q11.55-35.05 14.15-34.77 16.75-34.5 17.05-33.7L17.05-33.7 22.65-17.95 27.55-33.75Q28-35.05 34.45-35.05L34.45-35.05Q36.3-35.05 38.88-34.77 41.45-34.5 41.45-33.8L41.45-33.8 42.9-1Q42.9-0.45 40.95-0.2 39 0.05 37.5 0.05ZM62.72 0.5Q55.7 0.5 51.27-4.1 46.85-8.7 46.85-17.53 46.85-26.35 51.32-30.9 55.8-35.45 62.87-35.45 69.95-35.45 74.3-30.98 78.65-26.5 78.65-17.43 78.65-8.35 74.2-3.93 69.75 0.5 62.72 0.5ZM62.75-25.85Q60.35-25.85 58.72-23.65 57.1-21.45 57.1-17.48 57.1-13.5 58.65-11.38 60.2-9.25 62.72-9.25 65.25-9.25 66.82-11.4 68.4-13.55 68.4-17.55 68.4-21.55 66.77-23.7 65.15-25.85 62.75-25.85ZM117.65 0.05L117.65 0.05Q113.2 0.05 113.2-0.95L113.2-0.95 112.15-21 106.05-0.7Q105.85-0.1 102.65-0.1 99.45-0.1 99.35-0.65L99.35-0.65 93.05-21.2 92.35-1.25Q92.3-0.5 90.45-0.23 88.6 0.05 87.37 0.05 86.15 0.05 85-0.1L85-0.1Q82.6-0.45 82.65-1.35L82.65-1.35 83.8-33.85Q83.8-35.05 89.9-35.05L89.9-35.05Q91.7-35.05 94.3-34.77 96.9-34.5 97.2-33.7L97.2-33.7 102.8-17.95 107.7-33.75Q108.15-35.05 114.6-35.05L114.6-35.05Q116.45-35.05 119.02-34.77 121.6-34.5 121.6-33.8L121.6-33.8 123.05-1Q123.05-0.45 121.1-0.2 119.15 0.05 117.65 0.05ZM137.79-21.1L144.24-21.1Q145.19-21.1 145.19-17.6L145.19-17.6Q145.19-16.55 144.97-15.13 144.74-13.7 144.14-13.7L144.14-13.7 137.79-13.7 137.79-8.7 146.99-8.7Q147.84-8.7 148.14-6.5L148.14-6.5Q148.29-5.55 148.29-4.48 148.29-3.4 147.99-1.7 147.69 0 146.99 0L146.99 0 129.89 0Q127.99 0 127.99-1.55L127.99-1.55 127.99-33.7Q127.99-35 129.14-35L129.14-35 147.04-35Q148.09-35 148.09-30.58 148.09-26.15 147.04-26.15L147.04-26.15 137.79-26.15 137.79-21.1ZM180.04-34.05L180.04-1.1Q180.04-0.05 175.34-0.05 170.64-0.05 170.24-0.8L170.24-0.8 161.89-16.4 161.89-0.85Q161.89 0.05 157.27 0.05 152.64 0.05 152.64-0.85L152.64-0.85 152.64-34.3Q152.64-35.05 156.59-35.05L156.59-35.05Q158.14-35.05 160.22-34.77 162.29-34.5 162.74-33.75L162.74-33.75 170.74-18.35 170.74-34.05Q170.74-35 175.39-35 180.04-35 180.04-34.05L180.04-34.05ZM200.09-25.9L200.09-0.8Q200.09 0.2 195.14 0.2 190.19 0.2 190.19-0.8L190.19-0.8 190.19-25.9 184.19-25.9Q183.34-25.9 182.99-28.2L182.99-28.2Q182.84-29.3 182.84-30.45 182.84-31.6 182.99-32.7L182.99-32.7Q183.34-35 184.19-35L184.19-35 205.94-35Q206.79-35 207.14-32.7L207.14-32.7Q207.29-31.6 207.29-30.45 207.29-29.3 207.14-28.2L207.14-28.2Q206.79-25.9 205.94-25.9L205.94-25.9 200.09-25.9ZM209.99-8.6L213.44-8.6 213.44-26.4 209.89-26.4Q209.04-26.4 208.69-28.55L208.69-28.55Q208.54-29.6 208.54-30.7 208.54-31.8 208.69-32.85L208.69-32.85Q209.04-35 209.89-35L209.89-35 226.69-35Q227.54-35 227.84-32.85L227.84-32.85Q228.04-31.8 228.04-30.7 228.04-29.6 227.84-28.55L227.84-28.55Q227.54-26.4 226.69-26.4L226.69-26.4 223.34-26.4 223.34-8.6 226.84-8.6Q227.69-8.6 228.04-6.45L228.04-6.45Q228.24-5.4 228.24-4.3 228.24-3.2 228.04-2.15L228.04-2.15Q227.69 0 226.84 0L226.84 0 209.99 0Q209.14 0 208.84-2.15L208.84-2.15Q208.64-3.2 208.64-4.3 208.64-5.4 208.84-6.45L208.84-6.45Q209.14-8.6 209.99-8.6L209.99-8.6ZM246.18-25L250.13-33.65Q250.73-35.15 256.38-35.15L256.38-35.15Q257.83-35.15 259.96-34.93 262.08-34.7 262.08-34.5L262.08-34.5 253.58-17.2 262.38-0.65Q262.53-0.4 260.23-0.18 257.93 0.05 256.33 0.05L256.33 0.05Q249.98 0.05 249.38-1.65L249.38-1.65 245.63-11.2 242.23-1.35Q241.73 0.05 235.83 0.05L235.83 0.05Q234.38 0.05 232.23-0.15 230.08-0.35 230.28-0.7L230.28-0.7 238.08-18 229.98-34.5Q229.83-34.75 232.06-34.98 234.28-35.2 235.83-35.2L235.83-35.2Q242.13-35.2 242.73-33.4L242.73-33.4 246.18-25Z" opacity="1" transform="matrix(1,0,0,1,0,0)" fill="#ffffff" class="wordmark-text-0" data-fill-palette-color="primary" id="text-0"></path></svg></g></svg></g></svg></g></svg></g><g></g></svg></g><defs></defs></svg><rect width="395.52" height="54.707140299632535" fill="none" stroke="none" visibility="hidden"></rect></g></svg></g></svg>