<svg xmlns="http://www.w3.org/2000/svg" version="1.1" xmlns:xlink="http://www.w3.org/1999/xlink" xmlns:svgjs="http://svgjs.dev/svgjs" width="128" height="128" viewBox="0 0 128 128"><g transform="matrix(0.8046875,0,0,0.8046875,12.333870967741937,19.084468825770955)"><svg viewBox="0 0 155 135" data-background-color="#ffffff" preserveAspectRatio="xMidYMid meet" height="111" width="128" xmlns="http://www.w3.org/2000/svg" xmlns:xlink="http://www.w3.org/1999/xlink"><g id="tight-bounds" transform="matrix(1,0,0,1,0.25,0.38597731922311596)"><svg viewBox="0 0 154.5 134.2280453615538" height="134.2280453615538" width="154.5"><g><svg viewBox="0 0 154.5 134.2280453615538" height="134.2280453615538" width="154.5"><g><svg viewBox="0 0 154.5 134.2280453615538" height="134.2280453615538" width="154.5"><g id="textblocktransform"><svg viewBox="0 0 154.5 134.2280453615538" height="134.2280453615538" width="154.5" id="textblock"><g><svg viewBox="0 0 154.5 134.2280453615538" height="134.2280453615538" width="154.5"><g transform="matrix(1,0,0,1,0,0)"><svg width="154.5" viewBox="2.4989795918367346 -35.05 40.40102040816326 35.1" height="134.2280453615538" data-palette-color="#0080ff"><path d="M37.5 0.05L37.5 0.05Q33.05 0.05 33.05-0.95L33.05-0.95 32-21 25.9-0.7Q25.7-0.1 22.5-0.1 19.3-0.1 19.2-0.65L19.2-0.65 12.9-21.2 12.2-1.25Q12.15-0.5 10.3-0.23 8.45 0.05 7.23 0.05 6 0.05 4.85-0.1L4.85-0.1Q2.45-0.45 2.5-1.35L2.5-1.35 3.65-33.85Q3.65-35.05 9.75-35.05L9.75-35.05Q11.55-35.05 14.15-34.77 16.75-34.5 17.05-33.7L17.05-33.7 22.65-17.95 27.55-33.75Q28-35.05 34.45-35.05L34.45-35.05Q36.3-35.05 38.88-34.77 41.45-34.5 41.45-33.8L41.45-33.8 42.9-1Q42.9-0.45 40.95-0.2 39 0.05 37.5 0.05Z" opacity="1" transform="matrix(1,0,0,1,0,0)" fill="#0080ff" class="wordmark-text-0" data-fill-palette-color="primary" id="text-0"></path></svg></g></svg></g></svg></g></svg></g><g></g></svg></g><defs></defs></svg><rect width="154.5" height="134.2280453615538" fill="none" stroke="none" visibility="hidden"></rect></g></svg></g></svg>